<mxfile host="app.diagrams.net" modified="2023-03-04T07:23:06.988Z" agent="5.0 (Macintosh; Intel Mac OS X 10_15_7) AppleWebKit/537.36 (KHTML, like Gecko) Chrome/110.0.0.0 Safari/537.36" version="20.7.3" etag="Rjunr6v_ngFfkZBy30s_" type="github">
  <diagram id="hO2c9e0ag-w_Zp7F7HRF" name="Trang-1">
    <mxGraphModel dx="954" dy="481" grid="1" gridSize="10" guides="1" tooltips="1" connect="1" arrows="1" fold="1" page="1" pageScale="1" pageWidth="2339" pageHeight="3300" math="0" shadow="0">
      <root>
        <mxCell id="0" />
        <mxCell id="1" parent="0" />
        <mxCell id="8AqZJE-wEw9Ke-_Pna0a-1" value="&lt;font style=&quot;font-size: 20px;&quot;&gt;Hiáº¿u&lt;/font&gt;" style="ellipse;whiteSpace=wrap;html=1;aspect=fixed;" vertex="1" parent="1">
          <mxGeometry x="210" y="240" width="80" height="80" as="geometry" />
        </mxCell>
        <mxCell id="8AqZJE-wEw9Ke-_Pna0a-2" value="&lt;font style=&quot;font-size: 20px;&quot;&gt;Trinh&lt;/font&gt;" style="ellipse;whiteSpace=wrap;html=1;aspect=fixed;" vertex="1" parent="1">
          <mxGeometry x="760" y="240" width="80" height="80" as="geometry" />
        </mxCell>
        <mxCell id="8AqZJE-wEw9Ke-_Pna0a-3" value="STUN&lt;br&gt;server" style="rounded=1;whiteSpace=wrap;html=1;fontSize=20;" vertex="1" parent="1">
          <mxGeometry x="470" y="60" width="120" height="60" as="geometry" />
        </mxCell>
        <mxCell id="8AqZJE-wEw9Ke-_Pna0a-4" value="Firebase&lt;br&gt;" style="rounded=1;whiteSpace=wrap;html=1;fontSize=20;" vertex="1" parent="1">
          <mxGeometry x="470" y="260" width="120" height="60" as="geometry" />
        </mxCell>
        <mxCell id="8AqZJE-wEw9Ke-_Pna0a-5" value="TURN&lt;br&gt;server" style="rounded=1;whiteSpace=wrap;html=1;fontSize=20;" vertex="1" parent="1">
          <mxGeometry x="470" y="460" width="120" height="60" as="geometry" />
        </mxCell>
        <mxCell id="8AqZJE-wEw9Ke-_Pna0a-7" value="" style="endArrow=classic;html=1;rounded=0;fontSize=20;exitX=1;exitY=0;exitDx=0;exitDy=0;entryX=-0.042;entryY=0.633;entryDx=0;entryDy=0;entryPerimeter=0;" edge="1" parent="1" source="8AqZJE-wEw9Ke-_Pna0a-1" target="8AqZJE-wEw9Ke-_Pna0a-3">
          <mxGeometry width="50" height="50" relative="1" as="geometry">
            <mxPoint x="460" y="330" as="sourcePoint" />
            <mxPoint x="510" y="280" as="targetPoint" />
          </mxGeometry>
        </mxCell>
        <mxCell id="8AqZJE-wEw9Ke-_Pna0a-8" value="" style="endArrow=classic;html=1;rounded=0;fontSize=20;exitX=1;exitY=0.5;exitDx=0;exitDy=0;entryX=0;entryY=0.25;entryDx=0;entryDy=0;" edge="1" parent="1" source="8AqZJE-wEw9Ke-_Pna0a-1" target="8AqZJE-wEw9Ke-_Pna0a-4">
          <mxGeometry width="50" height="50" relative="1" as="geometry">
            <mxPoint x="288.2842712474619" y="261.7157287525381" as="sourcePoint" />
            <mxPoint x="474.96000000000004" y="107.98000000000002" as="targetPoint" />
          </mxGeometry>
        </mxCell>
        <mxCell id="8AqZJE-wEw9Ke-_Pna0a-9" value="" style="endArrow=classic;html=1;rounded=0;fontSize=20;exitX=0;exitY=0.75;exitDx=0;exitDy=0;entryX=0.975;entryY=0.25;entryDx=0;entryDy=0;entryPerimeter=0;" edge="1" parent="1" source="8AqZJE-wEw9Ke-_Pna0a-3" target="8AqZJE-wEw9Ke-_Pna0a-1">
          <mxGeometry width="50" height="50" relative="1" as="geometry">
            <mxPoint x="298.2842712474619" y="271.7157287525381" as="sourcePoint" />
            <mxPoint x="484.96000000000004" y="117.98000000000002" as="targetPoint" />
          </mxGeometry>
        </mxCell>
        <mxCell id="8AqZJE-wEw9Ke-_Pna0a-10" value="" style="endArrow=classic;html=1;rounded=0;fontSize=20;exitX=1;exitY=0;exitDx=0;exitDy=0;entryX=0.313;entryY=1.013;entryDx=0;entryDy=0;entryPerimeter=0;" edge="1" parent="1" target="8AqZJE-wEw9Ke-_Pna0a-2">
          <mxGeometry width="50" height="50" relative="1" as="geometry">
            <mxPoint x="600.0042712474619" y="483.7357287525381" as="sourcePoint" />
            <mxPoint x="786.6800000000001" y="330" as="targetPoint" />
          </mxGeometry>
        </mxCell>
        <mxCell id="8AqZJE-wEw9Ke-_Pna0a-11" value="" style="endArrow=classic;html=1;rounded=0;fontSize=20;exitX=1;exitY=1;exitDx=0;exitDy=0;entryX=0;entryY=0.25;entryDx=0;entryDy=0;" edge="1" parent="1" source="8AqZJE-wEw9Ke-_Pna0a-1" target="8AqZJE-wEw9Ke-_Pna0a-5">
          <mxGeometry width="50" height="50" relative="1" as="geometry">
            <mxPoint x="318.2842712474619" y="291.7157287525381" as="sourcePoint" />
            <mxPoint x="504.96000000000004" y="137.98000000000002" as="targetPoint" />
          </mxGeometry>
        </mxCell>
        <mxCell id="8AqZJE-wEw9Ke-_Pna0a-13" value="" style="endArrow=classic;html=1;rounded=0;fontSize=20;exitX=1;exitY=0.5;exitDx=0;exitDy=0;entryX=0.188;entryY=0.05;entryDx=0;entryDy=0;entryPerimeter=0;" edge="1" parent="1" source="8AqZJE-wEw9Ke-_Pna0a-3" target="8AqZJE-wEw9Ke-_Pna0a-2">
          <mxGeometry width="50" height="50" relative="1" as="geometry">
            <mxPoint x="590.0042712474619" y="80.0042712474619" as="sourcePoint" />
            <mxPoint x="781.72" y="246.72" as="targetPoint" />
          </mxGeometry>
        </mxCell>
        <mxCell id="8AqZJE-wEw9Ke-_Pna0a-14" value="" style="endArrow=classic;html=1;rounded=0;fontSize=20;exitX=0;exitY=0;exitDx=0;exitDy=0;entryX=1;entryY=0.75;entryDx=0;entryDy=0;entryPerimeter=0;" edge="1" parent="1" source="8AqZJE-wEw9Ke-_Pna0a-5" target="8AqZJE-wEw9Ke-_Pna0a-1">
          <mxGeometry width="50" height="50" relative="1" as="geometry">
            <mxPoint x="298.2842712474619" y="328.2842712474619" as="sourcePoint" />
            <mxPoint x="490" y="495" as="targetPoint" />
          </mxGeometry>
        </mxCell>
        <mxCell id="8AqZJE-wEw9Ke-_Pna0a-15" value="" style="endArrow=classic;html=1;rounded=0;fontSize=20;exitX=0.188;exitY=0.938;exitDx=0;exitDy=0;exitPerimeter=0;" edge="1" parent="1" source="8AqZJE-wEw9Ke-_Pna0a-2">
          <mxGeometry width="50" height="50" relative="1" as="geometry">
            <mxPoint x="640.0042712474619" y="330.00427124746193" as="sourcePoint" />
            <mxPoint x="600" y="470" as="targetPoint" />
          </mxGeometry>
        </mxCell>
        <mxCell id="8AqZJE-wEw9Ke-_Pna0a-16" value="" style="endArrow=classic;html=1;rounded=0;fontSize=20;entryX=1;entryY=0.75;entryDx=0;entryDy=0;" edge="1" parent="1" source="8AqZJE-wEw9Ke-_Pna0a-2" target="8AqZJE-wEw9Ke-_Pna0a-3">
          <mxGeometry width="50" height="50" relative="1" as="geometry">
            <mxPoint x="610.0042712474619" y="493.7357287525381" as="sourcePoint" />
            <mxPoint x="795.04" y="331.03999999999996" as="targetPoint" />
          </mxGeometry>
        </mxCell>
        <mxCell id="8AqZJE-wEw9Ke-_Pna0a-19" value="" style="endArrow=classic;html=1;rounded=0;fontSize=20;exitX=0;exitY=0.5;exitDx=0;exitDy=0;entryX=1.017;entryY=0.4;entryDx=0;entryDy=0;entryPerimeter=0;" edge="1" parent="1" source="8AqZJE-wEw9Ke-_Pna0a-2" target="8AqZJE-wEw9Ke-_Pna0a-4">
          <mxGeometry width="50" height="50" relative="1" as="geometry">
            <mxPoint x="620.0042712474619" y="503.7357287525381" as="sourcePoint" />
            <mxPoint x="805.04" y="341.03999999999996" as="targetPoint" />
          </mxGeometry>
        </mxCell>
        <mxCell id="8AqZJE-wEw9Ke-_Pna0a-20" value="" style="endArrow=classic;html=1;rounded=0;fontSize=20;exitX=1.025;exitY=0.617;exitDx=0;exitDy=0;exitPerimeter=0;entryX=-0.05;entryY=0.65;entryDx=0;entryDy=0;entryPerimeter=0;" edge="1" parent="1" source="8AqZJE-wEw9Ke-_Pna0a-4" target="8AqZJE-wEw9Ke-_Pna0a-2">
          <mxGeometry width="50" height="50" relative="1" as="geometry">
            <mxPoint x="770" y="290" as="sourcePoint" />
            <mxPoint x="750" y="300" as="targetPoint" />
          </mxGeometry>
        </mxCell>
        <mxCell id="8AqZJE-wEw9Ke-_Pna0a-21" value="&lt;font style=&quot;font-size: 14px;&quot;&gt;Who am I?&lt;/font&gt;" style="rounded=0;whiteSpace=wrap;html=1;fontSize=20;" vertex="1" parent="1">
          <mxGeometry x="270" y="140" width="100" height="20" as="geometry" />
        </mxCell>
        <mxCell id="8AqZJE-wEw9Ke-_Pna0a-22" value="&lt;font style=&quot;font-size: 14px;&quot;&gt;Who am I?&lt;/font&gt;" style="rounded=0;whiteSpace=wrap;html=1;fontSize=20;" vertex="1" parent="1">
          <mxGeometry x="580" y="180" width="100" height="20" as="geometry" />
        </mxCell>
        <mxCell id="8AqZJE-wEw9Ke-_Pna0a-23" value="&lt;font style=&quot;font-size: 14px;&quot;&gt;You are x.x.x.x:y&lt;/font&gt;" style="rounded=0;whiteSpace=wrap;html=1;fontSize=20;" vertex="1" parent="1">
          <mxGeometry x="680" y="140" width="120" height="20" as="geometry" />
        </mxCell>
        <mxCell id="8AqZJE-wEw9Ke-_Pna0a-24" value="&lt;font style=&quot;font-size: 14px;&quot;&gt;You are x.x.x.x:y&lt;/font&gt;" style="rounded=0;whiteSpace=wrap;html=1;fontSize=20;" vertex="1" parent="1">
          <mxGeometry x="380" y="190" width="120" height="20" as="geometry" />
        </mxCell>
        <mxCell id="8AqZJE-wEw9Ke-_Pna0a-25" value="&lt;p style=&quot;line-height: 60%;&quot;&gt;&lt;font style=&quot;font-size: 14px;&quot;&gt;Offer&amp;nbsp;&lt;/font&gt;&lt;span style=&quot;font-family: Roboto, sans-serif; font-size: 13px; text-align: right;&quot;&gt;123.16.3.181:&lt;/span&gt;&lt;br style=&quot;border-color: var(--border-color); font-family: Roboto, sans-serif; font-size: 13px; text-align: right;&quot;&gt;&lt;span style=&quot;border-color: var(--border-color); font-family: Roboto, sans-serif; font-size: 13px; text-align: left;&quot;&gt;63282&lt;/span&gt;&lt;/p&gt;&lt;p style=&quot;line-height: 60%;&quot;&gt;&lt;span style=&quot;border-color: var(--border-color); font-family: Roboto, sans-serif; font-size: 13px; text-align: left;&quot;&gt;CallId: Hieu&lt;/span&gt;&lt;/p&gt;" style="rounded=0;whiteSpace=wrap;html=1;fontSize=20;" vertex="1" parent="1">
          <mxGeometry x="330" y="240" width="120" height="80" as="geometry" />
        </mxCell>
        <mxCell id="8AqZJE-wEw9Ke-_Pna0a-26" value="&lt;span style=&quot;color: rgb(0, 0, 0); font-family: Roboto, sans-serif; font-style: normal; font-variant-ligatures: normal; font-variant-caps: normal; letter-spacing: normal; orphans: 2; text-align: right; text-indent: 0px; text-transform: none; widows: 2; word-spacing: 0px; -webkit-text-stroke-width: 0px; text-decoration-thickness: initial; text-decoration-style: initial; text-decoration-color: initial; float: none; display: inline !important; font-size: 13px;&quot;&gt;123.16.3.181:&lt;br&gt;&lt;span style=&quot;text-align: left;&quot;&gt;63282&lt;/span&gt;&lt;br&gt;&lt;/span&gt;" style="rounded=0;whiteSpace=wrap;html=1;fontSize=14;" vertex="1" parent="1">
          <mxGeometry x="100" y="265" width="100" height="40" as="geometry" />
        </mxCell>
        <mxCell id="8AqZJE-wEw9Ke-_Pna0a-27" value="&lt;font style=&quot;font-size: 13px;&quot;&gt;42.113.129.243: 36907&lt;/font&gt;" style="rounded=0;whiteSpace=wrap;html=1;fontSize=14;" vertex="1" parent="1">
          <mxGeometry x="850" y="260" width="110" height="45" as="geometry" />
        </mxCell>
        <mxCell id="8AqZJE-wEw9Ke-_Pna0a-29" value="&lt;p style=&quot;text-align: center; line-height: 60%;&quot;&gt;&lt;span style=&quot;text-align: left; background-color: initial; font-size: 14px;&quot;&gt;Join&amp;nbsp;&lt;/span&gt;&lt;span style=&quot;font-family: Roboto, sans-serif; font-size: 13px; text-align: left; background-color: initial;&quot;&gt;CallId: Hieu&lt;/span&gt;&lt;br&gt;&lt;/p&gt;" style="rounded=0;whiteSpace=wrap;html=1;fontSize=20;" vertex="1" parent="1">
          <mxGeometry x="610" y="240" width="110" height="30" as="geometry" />
        </mxCell>
        <mxCell id="8AqZJE-wEw9Ke-_Pna0a-30" value="video, audio, data" style="rounded=0;whiteSpace=wrap;html=1;fontSize=13;" vertex="1" parent="1">
          <mxGeometry x="330" y="370" width="100" height="40" as="geometry" />
        </mxCell>
        <mxCell id="8AqZJE-wEw9Ke-_Pna0a-31" value="video, audio, data" style="rounded=0;whiteSpace=wrap;html=1;fontSize=13;" vertex="1" parent="1">
          <mxGeometry x="640" y="380" width="100" height="40" as="geometry" />
        </mxCell>
      </root>
    </mxGraphModel>
  </diagram>
</mxfile>
